Hannibal 2001 BluRay 1080p DTS x264-LoNeWolf.mkv


Movie has been tested and is DXVA Compliant


General Information: Hannibal (2001) 

RUNTIME........: 2h 11mn
SIZE...........: 10.1 GiB
VIDEO CODEC....: x264 (L4.1)
RESOLUTION.....: 1920x1040
BITRATE........: Overall bit rate : 11.0 Mbps  
FRAMERATE......: 23.976 fps
AUDIO 1........: English DTS 1510 Kbps 6 Channels 
SUBTITLES......: English, Spanish, French 
CHAPTERS.......: YES
SOURCE.........: NTSC Blu-ray 
ENCODED DATE...: UTC 2011-02-18 18:12:08 
Encoder........: TequilaBob / a.k.a.bobnjeff / a.k.a. LoNeWoLf
GENRE..........: Crime, Drama, Thriller    
RATING.........: 6.5/10 X  Users: 6.5/10 (78,871 votes) 1,306 reviews | Critics: 256 reviews Metascore: 57/100 
Release Date...: 9 February 2001 (USA) 
Rated..........: Rated R for strong gruesome violence, some nudity and language 
IMDB link......: http://www.imdb.com/title/tt0212985/


[img]http://torrent-stats.info/3208/3bd97be8.png[/img]


Director: Ridley Scott
Writers: Thomas Harris (novel), David Mamet (screenplay), and 1 more credit » 
Stars:Anthony Hopkins, Julianne Moore, Gary Oldman  
 

Storyline
Part four in the Hannibal Lecter Quadrilogy. Having escaped the asylum in "Silence of the Lambs," Dr Lecter goes into hiding in Florence, Italy. Back in America, Mason Verger, an old victim of the doctor's, seeks revenge. Disfigured and confined to a life-support system, he plans to draw Lecter out of his hiding place, using the one thing he truly cares for: Clarice Starling. Written by James McManus


Cast
Cast overview, first billed only: 
  Anthony Hopkins  ...  Hannibal Lecter  
  Julianne Moore  ...  Clarice Starling  
  Gary Oldman  ...  Mason Verger  
  Ray Liotta  ...  Paul Krendler  
  Frankie Faison  ...  Nurse Barney (as Frankie R. Faison)  
  Giancarlo Giannini  ...  Insp. Renaldo Pazzi  
  Francesca Neri  ...  Allegra Pazzi  
  Zeljko Ivanek  ...  Dr. Cordell Doemling  
  Hazelle Goodman  ...  Evelda Drumgo  
  David Andrews  ...  FBI Agent Pearsall  
  Francis Guinan  ...  FBI Asst. Director Noonan  
  James Opher  ...  DEA Agent John Eldridge  
  Enrico Lo Verso  ...  Gnocco  
  Ivano Marescotti  ...  Carlo  
  Fabrizio Gifuni  ...  Matteo  


Format : Matroska 
File size : 10.1 GiB 
Duration : 2h 11mn 
Overall bit rate : 11.0 Mbps 
Encoded date : UTC 2011-02-18 18:12:08 
Writing application : mkvmerge v4.4.0 ('Die Wiederkehr') built on Oct 31 2010 21:52:48 
Writing library : libebml v1.0.0 + libmatroska v1.0.0 

Video 
ID : 1 
Format : AVC 
Format/Info : Advanced Video Codec 
Format profile : High@L4.1 
Format settings, CABAC : Yes 
Format settings, ReFrames : 3 frames 
Muxing mode : Container profile=Unknown@4.1 
Codec ID : V_MPEG4/ISO/AVC 
Duration : 2h 11mn 
Bit rate : 9 499 Kbps 
Width : 1 920 pixels 
Height : 1 040 pixels 
Display aspect ratio : 16:9 
Frame rate : 23.976 fps 
Color space : YUV 
Chroma subsampling : 4:2:0 
Bit depth : 8 bits 
Scan type : Progressive 
Bits/(Pixel*Frame) : 0.198 
Stream size : 8.55 GiB (84%) 
Writing library : x264 core 112 r1867 22bfd31 
Encoding settings : cabac=1 / ref=4 / deblock=1:-3:-3 / analyse=0x3:0x113 / me=umh / subme=10 / psy=1 / psy_rd=1.00:0.08 / mixed_ref=1 / me_range=32 / chroma_me=1 / trellis=2 / 8x8dct=1 / cqm=0 / deadzone=21,11 / fast_pskip=0 / chroma_qp_offset=-3 / threads=6 / sliced_threads=0 / nr=0 / decimate=0 / interlaced=0 / constrained_intra=0 / bframes=6 / b_pyramid=1 / b_adapt=1 / b_bias=0 / direct=1 / weightb=1 / open_gop=2 / weightp=2 / keyint=250 / keyint_min=23 / scenecut=40 / intra_refresh=0 / rc_lookahead=100 / rc=2pass / mbtree=1 / bitrate=9499 / ratetol=1.0 / qcomp=0.60 / qpmin=10 / qpmax=51 / qpstep=4 / cplxblur=20.0 / qblur=0.5 / vbv_maxrate=50000 / vbv_bufsize=50000 / nal_hrd=none / ip_ratio=1.40 / aq=1:1.50 
Language : English 

Audio 
ID : 2 
Format : DTS 
Format/Info : Digital Theater Systems 
Codec ID : A_DTS 
Duration : 2h 11mn 
Bit rate mode : Constant 
Bit rate : 1 510 Kbps 
Channel(s) : 6 channels 
Channel positions : Front: L C R, Side: L R, LFE 
Sampling rate : 48.0 KHz 
Bit depth : 24 bits 
Video delay : 10ms 
Stream size : 1.39 GiB (14%) 
Title : 3/2+1 
Language : English 

Text #1 
ID : 3 
Format : PGS 
Codec ID : S_HDMV/PGS 
Codec ID/Info : The same subtitle format used on BDs/HD-DVDs 
Language : English,Spanish,French 

Menu & 31 Chapters




See all 20 full size 1920x1040 PNG files at the link below

 
http://s1015.photobucket.com/albums/af279/tequila-bob/

 
http://www.imagebam.com/image/c3876f120275266 
http://www.imagebam.com/image/c5d641120275287 
http://www.imagebam.com/image/e993bb120275320 
http://www.imagebam.com/image/7a90c5120275369 
http://www.imagebam.com/image/dcc152120275380 
http://www.imagebam.com/image/03d6a0120275420 
http://www.imagebam.com/image/d33d22120275430
